<?xml version="1.0" encoding="UTF-8"?>
<svg xmlns="http://www.w3.org/2000/svg" xmlns:xlink="http://www.w3.org/1999/xlink" width="190px" height="130px" viewBox="0 0 190 130" version="1.1">
<defs>
<linearGradient id="linear0" gradientUnits="userSpaceOnUse" x1="1070.93103" y1="1153.258667" x2="557.051025" y2="777.728577" gradientTransform="matrix(0.106127,0,0,-0.106191,0,175.885009)">
<stop offset="0" style="stop-color:rgb(63.529412%,78.823529%,86.27451%);stop-opacity:1;"/>
<stop offset="1" style="stop-color:rgb(34.901961%,47.45098%,53.72549%);stop-opacity:1;"/>
</linearGradient>
</defs>
<g id="surface1">
<path style=" stroke:none;fill-rule:nonzero;fill:rgb(13.725491%,12.156863%,12.54902%);fill-opacity:1;" d="M 63.304688 47.289062 C 62.816406 46.042969 62.148438 44.8125 61.671875 43.550781 C 60.628906 40.988281 59.730469 38.367188 58.828125 35.765625 C 56.917969 30.414062 55.058594 25.03125 53.730469 19.496094 C 52.90625 17.300781 50.769531 21.015625 50.144531 21.917969 C 47.480469 26.164062 45.285156 30.730469 43.660156 35.488281 C 45.03125 32.25 46.652344 29.140625 48.519531 26.164062 C 49.148438 25.261719 51.292969 21.546875 52.109375 23.746094 C 53.433594 29.277344 55.292969 34.660156 57.203125 40.011719 C 58.105469 42.625 59.015625 45.238281 60.046875 47.796875 C 60.28125 48.421875 60.566406 49.050781 60.851562 49.664062 C 60.992188 49.625 61.117188 49.582031 61.226562 49.539062 C 62.433594 49.136719 63.835938 48.753906 63.304688 47.289062 Z M 63.304688 47.289062 "/>
<path style=" stroke:none;fill-rule:nonzero;fill:rgb(13.725491%,12.156863%,12.54902%);fill-opacity:1;" d="M 61.925781 54.476562 C 61.054688 54.625 60.289062 54.371094 59.675781 53.765625 C 59.652344 53.777344 59.621094 53.777344 59.601562 53.785156 C 58.679688 54.15625 56.84375 54.390625 56.769531 55.613281 C 56.769531 56.398438 57.328125 57.132812 57.796875 57.738281 C 58.453125 58.542969 59.304688 58.894531 60.289062 58.722656 C 60.640625 58.671875 61.011719 58.566406 61.363281 58.457031 C 64.144531 57.566406 66.914062 56.609375 69.628906 55.550781 C 70.746094 55.125 71.359375 54.507812 70.796875 53.285156 C 70.542969 52.777344 70.289062 52.269531 70.042969 51.757812 C 67.71875 52.628906 65.363281 53.445312 62.996094 54.199219 C 62.648438 54.316406 62.285156 54.421875 61.925781 54.476562 Z M 61.925781 54.476562 "/>
<path style=" stroke:none;fill-rule:nonzero;fill:rgb(13.725491%,12.156863%,12.54902%);fill-opacity:1;" d="M 79.585938 84.890625 C 80.316406 86.9375 80.910156 89.03125 81.472656 91.132812 C 82.515625 90.824219 83.511719 90.378906 83.542969 89.199219 C 83.566406 88.796875 83.46875 88.339844 83.375 87.917969 C 82.738281 85.464844 82.070312 83.011719 81.21875 80.632812 C 80.667969 78.984375 79.957031 78.519531 78.289062 79.125 C 68.15625 82.332031 52.078125 84.933594 41.71875 82.542969 C 40.105469 82.183594 38.578125 81.523438 37.632812 80.109375 C 36.835938 78.953125 36.210938 77.667969 35.628906 76.382812 C 31.796875 67.570312 31.351562 57.683594 32.441406 48.242188 L 32.441406 48.222656 C 32.984375 43.273438 34.195312 37.75 36.082031 32.3125 C 33.25 39.078125 31.5 46.234375 30.820312 52.480469 L 30.820312 52.5 C 29.726562 61.941406 30.171875 71.828125 34.003906 80.640625 C 34.585938 81.925781 35.203125 83.210938 36.007812 84.371094 C 36.941406 85.78125 38.480469 86.441406 40.09375 86.800781 C 50.453125 89.191406 66.53125 86.589844 76.667969 83.382812 C 78.320312 82.777344 79.03125 83.242188 79.585938 84.890625 Z M 79.585938 84.890625 "/>
<path style=" stroke:none;fill-rule:nonzero;fill:rgb(13.725491%,12.156863%,12.54902%);fill-opacity:1;" d="M 88.914062 95.742188 C 84.390625 97.460938 79.660156 98.609375 74.863281 99.277344 C 71.011719 99.820312 67.105469 99.96875 63.230469 99.683594 C 60.640625 99.566406 58.050781 99.277344 55.503906 98.789062 C 54.550781 98.640625 53.785156 98.367188 53.160156 97.917969 C 52.617188 97.886719 52.066406 97.855469 51.515625 97.8125 C 50.910156 97.769531 49.890625 97.75 49.644531 98.324219 C 49.414062 98.875 49.699219 99.554688 49.945312 100.074219 C 50.761719 101.914062 51.90625 102.742188 53.882812 103.046875 C 56.429688 103.535156 59.015625 103.8125 61.605469 103.941406 C 65.480469 104.214844 69.386719 104.078125 73.238281 103.535156 C 78.035156 102.867188 82.769531 101.730469 87.289062 100 C 87.992188 99.734375 88.753906 99.46875 89.359375 99.066406 C 89.964844 98.671875 90.355469 98.035156 90.367188 97.28125 C 90.378906 96.613281 90.261719 95.945312 90.101562 95.273438 C 89.71875 95.445312 89.304688 95.59375 88.914062 95.742188 Z M 88.914062 95.742188 "/>
<path style=" stroke:none;fill-rule:nonzero;fill:rgb(40.784314%,57.254905%,65.882355%);fill-opacity:1;" d="M 32.433594 48.242188 C 31.339844 57.683594 31.785156 67.570312 35.617188 76.382812 C 36.199219 77.667969 36.816406 78.953125 37.621094 80.109375 C 38.554688 81.523438 40.09375 82.183594 41.707031 82.542969 C 52.066406 84.933594 68.144531 82.332031 78.28125 79.125 C 79.945312 78.519531 80.65625 78.984375 81.207031 80.632812 C 82.070312 83.019531 82.738281 85.464844 83.363281 87.917969 C 83.46875 88.332031 83.554688 88.785156 83.53125 89.199219 C 83.492188 90.847656 81.539062 91.070312 80.273438 91.460938 C 72.707031 93.289062 64.863281 94.328125 57.074219 93.808594 C 55.757812 93.734375 54.445312 93.671875 53.128906 93.574219 C 52.523438 93.535156 51.503906 93.511719 51.257812 94.085938 C 51.027344 94.636719 51.3125 95.316406 51.558594 95.839844 C 52.375 97.675781 53.519531 98.503906 55.492188 98.8125 C 58.042969 99.300781 60.628906 99.574219 63.21875 99.703125 C 67.09375 99.980469 71 99.839844 74.851562 99.300781 C 79.648438 98.628906 84.382812 97.496094 88.902344 95.761719 C 89.601562 95.5 90.367188 95.234375 90.972656 94.828125 C 91.578125 94.4375 91.96875 93.800781 91.980469 93.046875 C 92 91.824219 91.578125 90.59375 91.300781 89.402344 C 90.917969 87.917969 90.484375 86.449219 90.050781 84.972656 C 88.710938 80.578125 87.3125 76.191406 85.359375 72.019531 C 85.082031 71.425781 84.710938 70.722656 84.191406 70.375 C 83.597656 69.925781 82.695312 70.023438 81.953125 70.234375 C 81.304688 70.414062 80.667969 70.617188 80.03125 70.820312 C 71.710938 73.761719 62.933594 75.40625 54.105469 75.714844 C 51.894531 75.800781 49.699219 75.757812 47.492188 75.617188 C 46.570312 75.578125 45.558594 75.394531 44.921875 74.726562 C 44.550781 74.367188 44.277344 73.867188 44.042969 73.335938 C 42.035156 68.832031 40.933594 64.042969 40.53125 59.136719 C 39.488281 46.109375 43.203125 32.929688 50.125 21.917969 C 50.75 21.015625 52.894531 17.300781 53.710938 19.496094 C 55.039062 25.03125 56.894531 30.414062 58.804688 35.765625 C 59.707031 38.378906 60.621094 40.988281 61.648438 43.550781 C 62.128906 44.8125 62.796875 46.042969 63.285156 47.289062 C 63.8125 48.761719 62.414062 49.136719 61.203125 49.539062 C 60.28125 49.910156 58.445312 50.144531 58.371094 51.363281 C 58.371094 52.152344 58.933594 52.882812 59.398438 53.488281 C 60.058594 54.296875 60.90625 54.644531 61.894531 54.476562 C 62.242188 54.421875 62.613281 54.316406 62.964844 54.210938 C 65.746094 53.320312 68.515625 52.363281 71.234375 51.300781 C 72.347656 50.875 72.960938 50.261719 72.398438 49.039062 C 71.273438 46.820312 70.234375 44.558594 69.324219 42.242188 C 64.929688 31.410156 61.574219 20.1875 58.699219 8.867188 C 58.445312 8.039062 58.285156 6.988281 57.890625 6.285156 C 57.480469 5.542969 56.808594 5.160156 55.503906 5.808594 C 41.78125 13.296875 34.023438 33.355469 32.410156 48.230469 Z M 32.433594 48.242188 "/>
<path style=" stroke:none;fill-rule:nonzero;fill:rgb(13.725491%,12.156863%,12.54902%);fill-opacity:1;" d="M 134.007812 43.941406 C 134.695312 42.835938 135.589844 41.703125 135.609375 40.351562 C 135.609375 40.171875 135.597656 39.980469 135.566406 39.800781 C 134.898438 40.808594 134.175781 41.785156 133.433594 42.753906 C 131.566406 45.257812 129.304688 47.425781 127.195312 49.75 C 126.726562 50.441406 127.46875 50.398438 128.054688 50.398438 C 128.359375 50.386719 128.679688 50.378906 128.988281 50.355469 C 129.972656 49.285156 130.941406 48.179688 131.808594 47.011719 C 132.574219 46.003906 133.308594 44.984375 134.007812 43.941406 Z M 134.007812 43.941406 "/>
<path style=" stroke:none;fill-rule:nonzero;fill:rgb(13.725491%,12.156863%,12.54902%);fill-opacity:1;" d="M 128.625 35.605469 C 128.542969 34.863281 128.105469 34.195312 127.691406 33.515625 C 127.234375 32.769531 126.738281 32.058594 126.195312 31.378906 C 113.609375 15.492188 94.484375 6.925781 74.300781 8.378906 L 74.277344 8.378906 C 71.996094 8.464844 71.457031 9.070312 72.15625 11.171875 C 72.292969 11.671875 72.410156 12.148438 72.515625 12.636719 C 72.558594 12.636719 72.601562 12.636719 72.65625 12.625 L 72.675781 12.625 C 92.863281 11.171875 111.984375 19.742188 124.574219 35.628906 C 125.113281 36.308594 125.613281 37.027344 126.070312 37.761719 C 126.335938 38.199219 126.609375 38.632812 126.800781 39.089844 C 127.160156 38.652344 127.511719 38.21875 127.851562 37.761719 C 128.328125 37.144531 128.742188 36.371094 128.625 35.605469 Z M 128.625 35.605469 "/>
<path style=" stroke:none;fill-rule:nonzero;fill:rgb(13.725491%,12.156863%,12.54902%);fill-opacity:1;" d="M 104.820312 89.933594 C 104.398438 90.070312 103.960938 90.1875 103.515625 90.304688 C 102.433594 90.59375 101.351562 90.941406 100.257812 91.164062 C 98.65625 91.484375 98.09375 90.519531 97.710938 89.191406 C 96.140625 83.988281 94.613281 78.773438 93.085938 73.558594 C 92.765625 72.378906 92.277344 71.253906 91.480469 70.320312 C 77.664062 54.464844 67.148438 28.085938 62.902344 7.582031 L 62.902344 7.5625 C 62.878906 7.378906 62.859375 7.199219 62.828125 7.019531 C 62.816406 7.019531 62.804688 7.03125 62.796875 7.03125 C 60.460938 7.910156 61.023438 9.757812 61.277344 11.808594 L 61.277344 11.828125 C 65.523438 32.335938 76.039062 58.714844 89.859375 74.558594 C 90.652344 75.492188 91.132812 76.617188 91.460938 77.796875 C 92.988281 83.011719 94.507812 88.234375 96.085938 93.425781 C 96.46875 94.765625 97.03125 95.722656 98.636719 95.402344 C 99.738281 95.179688 100.808594 94.828125 101.894531 94.542969 C 102.59375 94.351562 103.285156 94.160156 103.921875 93.90625 C 104.714844 93.609375 105.351562 93.066406 105.332031 92.164062 C 105.332031 91.726562 105.226562 91.3125 105.109375 90.890625 C 105.011719 90.582031 104.917969 90.253906 104.820312 89.933594 Z M 104.820312 89.933594 "/>
<path style=" stroke:none;fill-rule:nonzero;fill:rgb(13.725491%,12.156863%,12.54902%);fill-opacity:1;" d="M 151.996094 54.125 C 149.480469 56.757812 142.5625 61.8125 138.824219 60.496094 C 137.914062 60.167969 137.59375 59.339844 137.203125 58.585938 C 136.839844 57.863281 136.160156 57.671875 135.398438 57.726562 C 130.738281 58.117188 126.078125 58.628906 121.410156 58.9375 C 120.378906 58.988281 119.339844 59.03125 118.3125 59.0625 C 117.664062 59.085938 116.996094 59.136719 116.378906 59.328125 C 115.976562 59.457031 115.582031 59.625 115.210938 59.851562 C 112.367188 61.78125 109.542969 63.734375 106.542969 65.425781 C 105.683594 65.914062 104.820312 66.378906 103.941406 66.828125 C 103.019531 67.292969 101.796875 67.804688 101.785156 69.015625 C 101.765625 69.460938 101.871094 69.917969 101.976562 70.363281 C 102.042969 70.628906 102.105469 70.882812 102.167969 71.148438 C 102.210938 71.128906 102.253906 71.105469 102.296875 71.085938 C 103.175781 70.640625 104.046875 70.183594 104.894531 69.683594 C 107.898438 68.003906 110.722656 66.039062 113.566406 64.109375 C 113.9375 63.886719 114.332031 63.714844 114.734375 63.585938 C 115.351562 63.398438 116.019531 63.332031 116.664062 63.320312 C 117.695312 63.300781 118.734375 63.257812 119.765625 63.195312 C 124.433594 62.886719 129.082031 62.378906 133.753906 61.984375 C 134.515625 61.929688 135.195312 62.121094 135.554688 62.84375 C 135.949219 63.597656 136.269531 64.425781 137.179688 64.753906 C 140.917969 66.0625 147.835938 61.019531 150.351562 58.382812 C 151.570312 57.132812 153.132812 55.039062 152.8125 53.191406 C 152.546875 53.53125 152.261719 53.851562 151.996094 54.125 Z M 151.996094 54.125 "/>
<path style=" stroke:none;fill-rule:nonzero;fill:rgb(47.843137%,62.352943%,71.372551%);fill-opacity:1;" d="M 62.902344 7.582031 C 67.148438 28.085938 77.664062 54.464844 91.480469 70.308594 C 92.277344 71.242188 92.753906 72.371094 93.085938 73.546875 C 94.613281 78.761719 96.128906 83.988281 97.710938 89.179688 C 98.09375 90.519531 98.65625 91.472656 100.257812 91.15625 C 101.363281 90.933594 102.433594 90.582031 103.515625 90.292969 C 104.21875 90.105469 104.90625 89.914062 105.542969 89.65625 C 106.339844 89.359375 106.976562 88.820312 106.957031 87.917969 C 106.957031 87.480469 106.847656 87.066406 106.730469 86.640625 C 105.417969 82.085938 104.027344 77.542969 102.679688 72.996094 C 102.414062 72.113281 102.210938 71.222656 101.988281 70.332031 C 101.882812 69.886719 101.777344 69.429688 101.796875 68.980469 C 101.796875 67.78125 103.019531 67.261719 103.953125 66.792969 C 104.832031 66.347656 105.703125 65.890625 106.550781 65.394531 C 109.554688 63.714844 112.378906 61.75 115.222656 59.816406 C 115.59375 59.59375 115.988281 59.425781 116.390625 59.296875 C 117.003906 59.105469 117.675781 59.042969 118.320312 59.03125 C 119.351562 59.011719 120.390625 58.96875 121.421875 58.90625 C 126.089844 58.597656 130.738281 58.085938 135.40625 57.695312 C 136.171875 57.640625 136.851562 57.832031 137.210938 58.554688 C 137.605469 59.308594 137.921875 60.136719 138.835938 60.464844 C 142.570312 61.773438 149.492188 56.726562 152.007812 54.09375 C 153.324219 52.746094 155.03125 50.410156 154.351562 48.464844 C 153.472656 46.640625 150.933594 47.105469 149.34375 47.667969 C 148.355469 48 147.421875 48.507812 146.433594 48.796875 C 145.628906 49.039062 144.789062 49.136719 143.941406 49.175781 C 138.644531 49.496094 133.359375 50.132812 128.054688 50.34375 C 127.46875 50.34375 126.738281 50.386719 127.195312 49.699219 C 129.304688 47.371094 131.566406 45.207031 133.433594 42.699219 C 134.199219 41.703125 134.941406 40.691406 135.640625 39.640625 C 136.332031 38.539062 137.222656 37.402344 137.242188 36.050781 C 137.253906 35.339844 136.980469 34.617188 136.640625 33.917969 C 135.789062 32.164062 134.8125 30.476562 133.730469 28.851562 C 130.949219 24.648438 127.597656 20.867188 123.914062 17.449219 C 118.289062 12.265625 111.890625 7.847656 104.789062 4.9375 C 103.273438 4.320312 101.710938 3.824219 100.140625 3.34375 C 98.019531 2.707031 95.886719 2.039062 93.722656 1.539062 C 84.105469 -0.625 73.738281 -0.667969 64.410156 2.78125 C 62.074219 3.664062 62.636719 5.511719 62.890625 7.5625 Z M 74.300781 8.378906 C 94.484375 6.925781 113.609375 15.492188 126.195312 31.378906 C 126.738281 32.058594 127.234375 32.78125 127.691406 33.515625 C 128.105469 34.203125 128.542969 34.863281 128.625 35.605469 C 128.742188 36.371094 128.320312 37.144531 127.839844 37.761719 C 126.515625 39.503906 125.050781 41.148438 123.511719 42.722656 C 115.988281 50.34375 106.914062 56.261719 97.363281 61.027344 C 95.472656 62.015625 94.699219 61.175781 93.6875 59.5625 C 84.617188 45.324219 76.816406 29.988281 72.699219 13.550781 C 72.539062 12.722656 72.378906 11.980469 72.15625 11.171875 C 71.457031 9.070312 71.996094 8.464844 74.277344 8.378906 Z M 74.300781 8.378906 "/>
<path style=" stroke:none;fill-rule:nonzero;fill:rgb(13.725491%,12.156863%,12.54902%);fill-opacity:1;" d="M 115.210938 107.210938 C 64.324219 131.113281 14.378906 131.984375 3.660156 109.144531 C 1.007812 103.472656 1.019531 96.867188 3.3125 89.785156 C -0.5 98.472656 -1.144531 106.59375 2.046875 113.390625 C 12.765625 136.234375 62.699219 135.363281 113.597656 111.457031 C 151.835938 93.492188 179.738281 67.621094 186.679688 46.183594 C 177.667969 66.710938 150.964844 90.410156 115.210938 107.210938 Z M 115.210938 107.210938 "/>
<path style=" stroke:none;fill-rule:nonzero;fill:url(#linear0);" d="M 27.125 60.625 L 27.125 56.75 C 6.835938 75.40625 -2.90625 95.105469 3.671875 109.132812 C 14.390625 131.976562 64.324219 131.105469 115.222656 107.199219 C 166.109375 83.296875 198.679688 45.398438 187.960938 22.566406 C 180.246094 6.148438 152.292969 1.976562 118.269531 9.8125 L 120.785156 11.449219 L 120.792969 11.449219 C 148.917969 5.851562 171.40625 9.707031 177.773438 23.277344 C 187.199219 43.347656 157.609375 77.105469 111.699219 98.671875 C 65.789062 120.242188 20.929688 121.453125 11.515625 101.371094 C 6.390625 90.433594 12.839844 75.46875 27.191406 60.605469 "/>
</g>
</svg>
